<?xml version="1.0" encoding="UTF-8"?>
<svg id="_Слой_2" data-name="Слой 2" xmlns="http://www.w3.org/2000/svg" viewBox="0 0 998.67 998.67">
  <defs>
    <style>
      .cls-1 {
        fill: #7c7c7c;
      }

      .cls-1, .cls-2, .cls-3 {
        stroke-width: 0px;
      }

      .cls-4 {
        fill: none;
        stroke: #767878;
        stroke-miterlimit: 10;
        stroke-width: 7px;
      }

      .cls-3 {
        fill: #fff;
      }
    </style>
  </defs>
  <g id="_Слой_1-2" data-name="Слой 1">
    <g>
      <circle class="cls-2" cx="499.33" cy="499.33" r="499.33"/>
      <circle class="cls-4" cx="499.33" cy="499.33" r="475.44"/>
      <g>
        <path class="cls-3" d="m187.05,505.6h12.86l-1.82,12.05h-12.86l-3.64,23.86h-13.89l3.64-23.86h-12.75l-3.53,23.86h-13.66l3.53-23.86h-12.86l1.82-12.05h12.86l2.05-14.22h-12.86l1.82-12.05h12.86l3.42-22.17h13.66l-3.42,22.17h12.75l3.3-22.17h13.89l-3.3,22.17h12.86l-1.82,12.05h-12.86l-2.05,14.22Zm-13.89,0l2.05-14.22h-12.75l-2.05,14.22h12.75Z"/>
        <g>
          <path class="cls-1" d="m222.29,540.68v-82.64h25.85v28.24h15.91v-28.24h26.64v82.65h-26.63v-32.95h-15.9v32.95h-25.87Z"/>
          <path class="cls-3" d="m694.44,497.24c.91.49,1.71.87,2.47,1.35,4.81,3.07,7.57,7.9,8.22,14.25.96,9.37-1.6,18.23-9.63,23.25-2.1,1.31-4.38,2.3-6.66,3.08-5.15,1.77-10.47,2.18-15.8,2.2-10.88.03-21.75.01-32.63.01-.3,0-.6-.03-.96-.06v-82.69c.38-.02.77-.06,1.17-.06,10.23,0,20.46-.02,30.69,0,6.14.01,12.24.53,18.09,2.96,1.68.69,3.33,1.55,4.87,2.59,8.86,6,9.33,17.2,7.05,24.51-1.07,3.42-3.05,5.99-5.72,7.8-.35.24-.69.48-1.16.8Zm-29.27,26.29c2.6,0,5.07.14,7.53-.04,3.17-.23,5.46-3.23,5.64-7.08.22-4.57-1.61-8.04-4.96-8.53-2.68-.4-5.43-.08-8.21-.08v15.73Zm-.02-33.64c.2.06.31.11.42.11,2.21,0,4.41.06,6.62,0,3.6-.11,5.43-2.29,5.59-6.54.16-4.28-1.77-6.86-5.36-7.07-1.67-.1-3.34-.04-5.02-.05-.74,0-1.48,0-2.25,0v13.55Z"/>
          <path class="cls-3" d="m621.07,520.47c-4.61,9.62-12.19,15.97-22.37,19.08-11.78,3.6-23.68,3.63-35.43-.13-12.18-3.9-20.28-12.07-24.04-24.21-3.44-11.08-3.33-22.26.5-33.22,3.91-11.18,11.69-18.77,22.99-22.52,11.9-3.95,24-4.04,35.94-.31,14.01,4.38,22.35,14.14,25.47,28.25,1.42,6.56,2.92,20.29-3.07,33.07Zm-58.26-20.28c0,15.05,10.64,21.57,18.29,21.57,7.25-.38,19.16-4.24,19.16-21.35,0-19.32-14.52-20.9-19.3-20.9-5.29,0-18.15,3.35-18.15,20.68Z"/>
          <path class="cls-1" d="m349.12,540.7c-.72-4.3-1.45-8.52-2.1-12.76-.16-1.02-.42-1.41-1.3-1.4-4.78.06-9.55.05-14.33,0-.81,0-1.1.32-1.25,1.31-.66,4.28-1.41,8.55-2.12,12.85h-26.28c6.32-27.62,10.46-55.18,16.76-82.73h40.23c6.3,27.55,10.38,55.1,16.7,82.72h-26.29Zm-15.16-38.18c3.12,0,5.52.02,8.62.02l-2.66-23.11c-.08.01-2.46,0-2.54.02l-3.42,23.07Z"/>
          <path class="cls-3" d="m866.6,540.7c-.37.02-.59.05-.81.05-8.64,0-16.42-.01-25.06.03-.73,0-1.03-.36-1.31-1.08-2.92-7.3-6.71-14.58-9.64-21.86-.17-.43-.37-.85-.63-1.46-.27.63-.48,1.08-.67,1.55-2.92,7.24-6.69,14.49-9.6,21.74-.25.61-.43,1.12-1.18,1.11-8.79-.04-16.72-.03-25.5-.03-.11,0-.22-.04-.47-.08.22-.52.4-.99.6-1.44,8.04-13.39,15.71-26.77,22.83-39.41.42-.93.45-1.62.03-2.56-6.68-12.85-14.35-24.93-21.91-37.85-.19-.42-.35-.86-.6-1.47h1.1c8.49,0,16.12.01,24.61-.02.79,0,1.16.3,1.49,1.16,2.56,6.7,8.63,22.17,8.9,22.83.25-.57,7.09-16.09,9.69-22.86.27-.7.52-1.14,1.28-1.13,8.67.04,16.49.03,25.17.03.18,0,.37.02.71.05-.23.56-.42,1.02-.62,1.48-7.25,12.01-15.6,25.19-21.93,37.69-.44.98-.47,1.7-.01,2.7,7.16,12.92,15.2,26.59,22.91,39.36.19.43.37.87.64,1.5Z"/>
          <path class="cls-3" d="m491.01,540.71h-26.16v-82.78c.44,0,.85,0,1.26,0,9.75,0,19.5-.01,29.25,0,6.45.01,10.89,1.26,16.95,4.09,8.83,4.13,15.53,11.2,16.29,22.25.32,4.68.6,11.57-.7,16.03-2.16,7.39-3.04,9.93-10.82,15.69-6.07,2.94-11.53,4.88-18.03,4.93-1.51.01-6.42.19-8.05.19v19.59Zm-.22-41.34c2.84,0,12.97,1.79,12.97-9.91,0-10.91-9.44-10.09-12.75-10.04,0,6.78-.23,13.47-.23,19.94Z"/>
          <path class="cls-3" d="m385.74,458.01h60.38l-4.42,19.95h-27.46v8.87c.6,0,1.18,0,1.76,0,4.96.02,9.93-.18,14.84.88,6.17,1.34,11.71,3.92,15.78,9.32,2.89,3.84,4.31,8.32,4.77,13.16.5,5.33.05,10.55-2.01,15.49-2.57,6.15-7.05,10.08-12.83,12.44-4.74,1.93-9.69,2.61-14.72,2.62-11.74.03-23.48.01-35.22.01-.25,0-.5-.03-.85-.05v-82.69Zm28.44,62.51c1.9,0,3.69.24,5.39-.08,1.14-.21,2.38-.99,3.17-1.92,1.98-2.36,1.96-7,.06-9.42-.62-.79-1.53-1.63-2.41-1.79-2.03-.38-4.12-.36-6.21-.5v13.71Z"/>
          <path class="cls-3" d="m779.25,457.94c-9.75,0-19.5-.01-29.25,0-6.45.01-10.89,1.26-16.95,4.09-8.83,4.13-15.53,11.2-16.29,22.25-.32,4.68-.6,11.57.7,16.03,2.16,7.39,3.04,9.93,10.82,15.69.54.26,1.08.51,1.61.75l-14.69,23.96h30.45l8.7-18.29v18.29h26.16v-82.78h-1.26Zm-24.9,21.5c0,6.78.23,13.47.23,19.94-2.84,0-12.97,1.79-12.97-9.91,0-10.91,9.44-10.09,12.75-10.04Z"/>
        </g>
      </g>
      <g>
        <path class="cls-3" d="m400.48,905.99c-.52,2.38-1.45,4.18-2.79,5.4s-3.09,1.83-5.25,1.83c-2.95,0-5.12-1.01-6.51-3.02-1.38-2.02-2.08-5.16-2.08-9.45s.7-7.65,2.09-9.72,3.57-3.11,6.54-3.11c2.81,0,4.94.94,6.37,2.83,1.43,1.89,2.15,4.69,2.15,8.4v2.5h-11.4v.34c0,2.28.22,3.93.67,4.96s1.17,1.53,2.16,1.53c.71,0,1.3-.32,1.76-.96.46-.64.76-1.56.9-2.78l5.38,1.26Zm-10.88-8.19h5.75c-.01-1.89-.26-3.27-.73-4.15-.48-.87-1.22-1.31-2.23-1.31-.91,0-1.6.45-2.06,1.36-.46.91-.71,2.27-.74,4.09Z"/>
        <path class="cls-3" d="m412.4,908.6l4.24-3.09c.36.92.82,1.64,1.37,2.15.54.51,1.13.77,1.74.77.57,0,1.07-.21,1.48-.63.41-.42.62-.92.62-1.51,0-1.02-1.1-2.24-3.3-3.65-.32-.21-.57-.37-.73-.48-1.83-1.18-3.12-2.32-3.87-3.44s-1.12-2.41-1.12-3.86c0-2,.72-3.67,2.15-5.01,1.43-1.34,3.23-2,5.39-2,1.58,0,2.98.4,4.21,1.21,1.22.81,2.14,1.92,2.74,3.35l-3.91,2.62c-.21-.78-.59-1.42-1.14-1.92s-1.16-.75-1.82-.75-1.19.19-1.6.56c-.41.37-.61.85-.61,1.44,0,.98,1.01,2.09,3.04,3.34.83.5,1.46.91,1.91,1.22,1.51,1.02,2.6,2.08,3.28,3.16.67,1.08,1.01,2.32,1.01,3.71,0,2.23-.7,4.02-2.11,5.38-1.41,1.36-3.28,2.04-5.62,2.04-1.62,0-3.07-.4-4.34-1.19-1.27-.79-2.27-1.92-3.01-3.39Z"/>
        <path class="cls-3" d="m447.18,904.19c0,1.48.13,2.43.4,2.84s.78.62,1.53.62c.07,0,.18,0,.33-.02.15-.01.25-.02.33-.02v5.04c-.76.08-1.42.15-2,.19-.58.04-1.05.06-1.4.06-1.92,0-3.24-.46-3.98-1.4-.74-.93-1.1-2.84-1.1-5.74v-12.85h-2.35v-4.51h2.35v-5.17h5.9v5.17h2.58v4.51h-2.58v11.28Z"/>
        <path class="cls-3" d="m461.95,909.86c0-.91.32-1.69.97-2.34.64-.65,1.43-.98,2.35-.98s1.72.32,2.36.96c.64.64.96,1.42.96,2.36s-.33,1.69-.99,2.34c-.66.65-1.43.98-2.33.98s-1.64-.34-2.31-1.01-1.01-1.44-1.01-2.31Z"/>
        <path class="cls-3" d="m506.1,912.65l9.64-18.14c.8-1.51,1.32-2.65,1.56-3.42.24-.77.37-1.53.37-2.27,0-.81-.2-1.47-.59-1.96-.39-.5-.91-.75-1.55-.75-.78,0-1.38.35-1.79,1.06-.41.71-.62,1.72-.62,3.03v.69h-5.98v-.78c0-3,.73-5.28,2.18-6.87s3.56-2.37,6.3-2.37,4.69.69,6.13,2.08,2.16,3.35,2.16,5.9c0,1.36-.22,2.71-.65,4.04-.43,1.34-1.34,3.17-2.71,5.51l-4.93,8.48h7.43v5.75h-16.94Z"/>
        <path class="cls-3" d="m554.78,897.01c0,5.57-.72,9.66-2.17,12.26-1.45,2.6-3.72,3.91-6.81,3.91s-5.36-1.3-6.81-3.91c-1.45-2.6-2.17-6.69-2.17-12.26s.72-9.7,2.17-12.31c1.45-2.61,3.72-3.92,6.81-3.92s5.36,1.31,6.81,3.94c1.45,2.62,2.17,6.72,2.17,12.29Zm-6.24-.19c0-4.41-.2-7.31-.6-8.7-.4-1.39-1.12-2.09-2.15-2.09s-1.74.71-2.14,2.14-.61,4.31-.61,8.65.2,7.26.61,8.69,1.12,2.14,2.14,2.14,1.75-.7,2.15-2.09c.4-1.39.6-4.31.6-8.75Z"/>
        <path class="cls-3" d="m573.35,912.65v-23.6c-.59.46-1.2.88-1.83,1.25-.63.37-1.28.7-1.95.98v-4.98c1.81-.88,3.33-1.76,4.58-2.64,1.25-.87,2.34-1.84,3.3-2.89h1.85v31.87h-5.94Z"/>
        <path class="cls-3" d="m606.33,901.52c-.38.18-.76.32-1.14.41-.38.09-.79.14-1.21.14-1.97,0-3.56-.89-4.76-2.68-1.2-1.79-1.79-4.17-1.79-7.17,0-3.46.79-6.22,2.38-8.29s3.69-3.11,6.31-3.11,4.83.98,6.37,2.93c1.55,1.95,2.32,4.64,2.32,8.05,0,2.04-.27,4.02-.82,5.92-.55,1.9-1.61,4.28-3.19,7.14l-4.28,7.79h-6.72l6.53-11.13Zm2.41-9.99c0-1.79-.21-3.12-.63-3.98-.42-.86-1.07-1.29-1.95-1.29s-1.48.46-1.92,1.38c-.44.92-.66,2.25-.66,4,0,1.89.21,3.27.62,4.13.41.86,1.07,1.29,1.96,1.29s1.51-.46,1.94-1.37c.43-.91.64-2.3.64-4.16Z"/>
      </g>
    </g>
  </g>
</svg>